<?xml version="1.0" encoding="UTF-8" standalone="no"?>
<!-- Created with Inkscape (http://www.inkscape.org/) -->

<svg
   xmlns:dc="http://purl.org/dc/elements/1.1/"
   xmlns:cc="http://creativecommons.org/ns#"
   xmlns:rdf="http://www.w3.org/1999/02/22-rdf-syntax-ns#"
   xmlns:svg="http://www.w3.org/2000/svg"
   xmlns="http://www.w3.org/2000/svg"
   xmlns:sodipodi="http://sodipodi.sourceforge.net/DTD/sodipodi-0.dtd"
   xmlns:inkscape="http://www.inkscape.org/namespaces/inkscape"
   width="744.09448819"
   height="1052.3622047"
   id="svg2"
   version="1.1"
   inkscape:version="0.48.3.1 r9886"
   sodipodi:docname="drawing.xcf">
  <defs
     id="defs4" />
  <sodipodi:namedview
     id="base"
     pagecolor="#ffffff"
     bordercolor="#666666"
     borderopacity="1.0"
     inkscape:pageopacity="0.0"
     inkscape:pageshadow="2"
     inkscape:zoom="0.7"
     inkscape:cx="550.06168"
     inkscape:cy="579.49464"
     inkscape:document-units="px"
     inkscape:current-layer="layer1"
     showgrid="false"
     inkscape:window-width="1600"
     inkscape:window-height="876"
     inkscape:window-x="0"
     inkscape:window-y="24"
     inkscape:window-maximized="1" />
  <metadata
     id="metadata7">
    <rdf:RDF>
      <cc:Work
         rdf:about="">
        <dc:format>image/svg+xml</dc:format>
        <dc:type
           rdf:resource="http://purl.org/dc/dcmitype/StillImage" />
        <dc:title></dc:title>
      </cc:Work>
    </rdf:RDF>
  </metadata>
  <g
     inkscape:label="Layer 1"
     inkscape:groupmode="layer"
     id="layer1">
    <g
       id="g3065"
       transform="translate(-2.8571434,0)">
      <rect
         y="45.214352"
         x="85.70929"
         height="140.00998"
         width="140.00999"
         id="rect2987"
         style="fill:#0000ff;fill-rule:evenodd;stroke:#000000;stroke-width:0.99002004px;stroke-linecap:butt;stroke-linejoin:miter;stroke-opacity:1" />
      <rect
         y="60.71521"
         x="101.21015"
         height="109.00826"
         width="109.00827"
         id="rect2991"
         style="fill:#0000ff;fill-rule:evenodd;stroke:#000000;stroke-width:0.99173725px;stroke-linecap:butt;stroke-linejoin:miter;stroke-opacity:1" />
      <path
         inkscape:connector-curvature="0"
         id="path2993"
         d="m 102.91882,115.43897 0,-52.857138 52.85715,0 52.85714,0 0,52.857138 0,52.85715 -52.85714,0 -52.85715,0 0,-52.85715 z"
         style="fill:#ffffff" />
    </g>
    <g
       id="g3070"
       transform="translate(-1.4285698,-6.666626)">
      <rect
         y="216.64291"
         x="84.280716"
         height="140.00998"
         width="140.00999"
         id="rect2987-3"
         style="fill:#0000ff;fill-rule:evenodd;stroke:#000000;stroke-width:0.99002004px;stroke-linecap:butt;stroke-linejoin:miter;stroke-opacity:1" />
      <rect
         y="232.14377"
         x="99.78157"
         height="109.00826"
         width="109.00827"
         id="rect2991-3"
         style="fill:#0000ff;fill-rule:evenodd;stroke:#000000;stroke-width:0.99173725px;stroke-linecap:butt;stroke-linejoin:miter;stroke-opacity:1" />
      <path
         inkscape:connector-curvature="0"
         id="path2993-0"
         d="m 101.49025,286.86752 0,-52.85714 52.85715,0 52.85714,0 0,52.85714 0,52.85715 -52.85714,0 -52.85715,0 0,-52.85715 z"
         style="fill:#ffffff" />
    </g>
    <g
       id="g3075"
       transform="translate(1.4285698,-7.6190186)">
      <rect
         y="382.35721"
         x="81.423576"
         height="140.00998"
         width="140.00999"
         id="rect2987-9"
         style="fill:#0000ff;fill-rule:evenodd;stroke:#000000;stroke-width:0.99002004px;stroke-linecap:butt;stroke-linejoin:miter;stroke-opacity:1" />
      <rect
         y="397.85806"
         x="96.924431"
         height="109.00826"
         width="109.00827"
         id="rect2991-4"
         style="fill:#0000ff;fill-rule:evenodd;stroke:#000000;stroke-width:0.99173725px;stroke-linecap:butt;stroke-linejoin:miter;stroke-opacity:1" />
      <path
         inkscape:connector-curvature="0"
         id="path2993-2"
         d="m 98.633106,452.58181 0,-52.85713 52.857154,0 52.85714,0 0,52.85713 0,52.85716 -52.85714,0 -52.857154,0 0,-52.85716 z"
         style="fill:#ffffff" />
    </g>
    <g
       id="g3080"
       transform="translate(2.8571434,0)">
      <rect
         y="539.50006"
         x="79.995003"
         height="140.00998"
         width="140.00999"
         id="rect2987-9-2"
         style="fill:#0000ff;fill-rule:evenodd;stroke:#000000;stroke-width:0.99002004px;stroke-linecap:butt;stroke-linejoin:miter;stroke-opacity:1" />
      <rect
         y="555.00092"
         x="95.495857"
         height="109.00826"
         width="109.00827"
         id="rect2991-4-2"
         style="fill:#0000ff;fill-rule:evenodd;stroke:#000000;stroke-width:0.99173725px;stroke-linecap:butt;stroke-linejoin:miter;stroke-opacity:1" />
      <path
         inkscape:connector-curvature="0"
         id="path2993-2-5"
         d="m 97.204534,609.72465 0,-52.85713 52.857146,0 52.85714,0 0,52.85713 0,52.85717 -52.85714,0 -52.857146,0 0,-52.85717 z"
         style="fill:#ffffff" />
    </g>
    <rect
       style="fill:#999999"
       id="rect3085"
       width="342.85715"
       height="38.57143"
       x="248.57143"
       y="147.14792" />
    <rect
       style="fill:#999999"
       id="rect3085-0"
       width="342.85715"
       height="38.57143"
       x="248.57143"
       y="311.90982" />
    <rect
       style="fill:#999999"
       id="rect3085-8"
       width="342.85715"
       height="38.57143"
       x="248.57143"
       y="476.67175" />
    <rect
       style="fill:#999999"
       id="rect3085-4"
       width="342.85715"
       height="38.57143"
       x="248.57143"
       y="641.43359" />
    <path
       style="fill:#008000"
       d="m 126.78231,485.87992 c -0.43841,-1.42109 -4.66075,-21.54809 -9.38299,-44.72666 -4.72223,-23.17857 -8.96994,-43.74415 -9.43934,-45.70128 -0.59156,-2.46642 4.99022,2.47105 18.18869,16.08918 l 19.04217,19.64761 87.1135,-35.74182 c 47.91243,-19.65801 87.66793,-35.55702 88.34557,-35.33114 0.89821,0.2994 -153.86754,103.26069 -189.26478,125.91251 -3.61173,2.31126 -3.84634,2.30369 -4.60282,-0.1484 z"
       id="path3144"
       inkscape:connector-curvature="0" />
    <path
       style="fill:#008000"
       d="m 126.78231,160.02924 c -0.43841,-1.42109 -4.66075,-21.54809 -9.38299,-44.72666 -4.72223,-23.178566 -8.96994,-43.744146 -9.43934,-45.701276 -0.59156,-2.46642 4.99022,2.47105 18.18869,16.08918 l 19.04217,19.647606 87.1135,-35.741816 c 47.91243,-19.65801 87.66793,-35.55702 88.34557,-35.33114 0.89821,0.2994 -153.86754,103.260686 -189.26478,125.912506 -3.61173,2.31126 -3.84634,2.30369 -4.60282,-0.1484 z"
       id="path3144-3"
       inkscape:connector-curvature="0" />
  </g>
</svg>
